<svg id="Layer_1" data-name="Layer 1" xmlns="http://www.w3.org/2000/svg" viewBox="0 0 183.92 240.97"><defs><style>.cls-1{fill:#f0513b;}.cls-2{fill:#4d64ae;}.cls-3,.cls-4,.cls-5{fill:none;}.cls-3,.cls-4{stroke:#4d64ae;stroke-miterlimit:10;}.cls-3{stroke-width:21px;}.cls-4{stroke-width:15px;}</style></defs><rect class="cls-1" x="2.1" y="69.54" width="181.82" height="171.43"/><rect class="cls-2" x="59.24" y="69.54" width="33.77" height="171.43"/><rect class="cls-2" x="237.75" y="318.74" width="33.77" height="181.82" transform="translate(502.66 -94.9) rotate(90)"/><path class="cls-3" d="M233.08,300.59c0,.43-1.46,16.6-1.46,16.6s-26.15-14.91-30.68-20.6c-2.84-3.57-9.69-12.16-7.39-21.37,2.67-10.64,16.28-17.13,25.25-14C230.9,265.38,233.08,300.15,233.08,300.59Z" transform="translate(-161.63 -249.91)"/><path class="cls-3" d="M254,311.63c-.4.26-16,8.39-16,8.39s-.6-32.17,2.14-39.56c1.72-4.63,5.85-15.79,15.55-19.11,11.19-3.82,24.55,4.61,26.59,14.47C285,289.12,254.35,311.38,254,311.63Z" transform="translate(-161.63 -249.91)"/><path class="cls-4" d="M204.33,314.25c.27.17,9.37,7.51,9.37,7.51s-20.11,11-25.47,11.72c-3.35.43-11.44,1.47-16-3.67-5.27-5.94-3.37-17.33,2.32-21.91C182.22,301.72,204.07,314.08,204.33,314.25Z" transform="translate(-161.63 -249.91)"/><path class="cls-4" d="M270.46,328.47c-.29-.12-10.51-5.81-10.51-5.81s17.95-14.29,23.11-15.87c3.23-1,11-3.4,16.4.9,6.2,4.95,6.26,16.5,1.44,22C294.38,337.06,270.75,328.6,270.46,328.47Z" transform="translate(-161.63 -249.91)"/><line class="cls-5" x1="84.35" y1="58.62" x2="84.46" y2="58.62"/></svg>